<svg id="Calque_1" data-name="Calque 1" xmlns="http://www.w3.org/2000/svg" viewBox="0 0 428 20"><defs><style>.cls-1{fill:#cc6;}</style></defs><title>line</title><path class="cls-1" d="M674.5,471.31c-.63-.09-.41,1-.5,1.18C675.06,472.25,674.47,471,674.5,471.31Z" transform="translate(-674 -455)"/><polygon class="cls-1" points="10.93 13.84 10.75 14.29 12.28 13.2 10.93 13.84"/><path class="cls-1" d="M694.69,468.86c-.93-1.85-3.54.3-5.28-.35l-.28-.43-.79,1.49C690.45,469.34,693.2,468.35,694.69,468.86Z" transform="translate(-674 -455)"/><path class="cls-1" d="M699.89,472.87c-.32-.72,1.12-.62-1.22-.23a1.77,1.77,0,0,1,.22.18A7,7,0,0,1,699.89,472.87Z" transform="translate(-674 -455)"/><path class="cls-1" d="M698.89,472.82c-1,.06.68.61,0,0Z" transform="translate(-674 -455)"/><path class="cls-1" d="M703.64,472.41l-1.36.64c.29.43,1.49.52,1,.83C704.71,473.53,704.43,473.11,703.64,472.41Z" transform="translate(-674 -455)"/><path class="cls-1" d="M704.92,471.06l-.7.27C704.34,471.51,704.53,471.57,704.92,471.06Z" transform="translate(-674 -455)"/><path class="cls-1" d="M702.73,471.91l1.49-.58c-.2-.3-.22-.9-.68.21C703.66,471,703.36,471.52,702.73,471.91Z" transform="translate(-674 -455)"/><path class="cls-1" d="M701.89,471.63c-.76-.41-1.74-.66-.38-1.3C698.92,470.58,699.3,471.88,701.89,471.63Z" transform="translate(-674 -455)"/><path class="cls-1" d="M695.18,467l-1-.54-.88.62C693.73,466.72,695.25,467.53,695.18,467Z" transform="translate(-674 -455)"/><path class="cls-1" d="M712.07,473.37c.08-.39-.46-1.05-.56-1.55l-1,.45C711,472.54,712,472.79,712.07,473.37Z" transform="translate(-674 -455)"/><path class="cls-1" d="M711.51,471.82l1.5-.68C711.67,471.06,711.43,471.38,711.51,471.82Z" transform="translate(-674 -455)"/><polygon class="cls-1" points="31.16 14.01 28.7 15.42 31.64 13.99 31.16 14.01"/><polygon class="cls-1" points="43.78 18.42 42.93 19.33 44.44 17.95 43.78 18.42"/><path class="cls-1" d="M721.57,473.26c-.63.75.86,1.28.19,1.74a6.09,6.09,0,0,0,2.7-1.37A3.3,3.3,0,0,1,721.57,473.26Z" transform="translate(-674 -455)"/><path class="cls-1" d="M725.79,472.79a7.37,7.37,0,0,0-1.33.84A3.83,3.83,0,0,0,725.79,472.79Z" transform="translate(-674 -455)"/><path class="cls-1" d="M715.55,471.33a1.83,1.83,0,0,0,1.18,1.13l-.59-1.11Z" transform="translate(-674 -455)"/><path class="cls-1" d="M716.12,471.32l0,0,1.27.06Z" transform="translate(-674 -455)"/><path class="cls-1" d="M715.4,471.33h.15C715.5,471.23,715.46,471.19,715.4,471.33Z" transform="translate(-674 -455)"/><path class="cls-1" d="M709.08,470c.88-.62,2.71-1.28.94-2.23C709.39,468.54,710.4,469.08,709.08,470Z" transform="translate(-674 -455)"/><path class="cls-1" d="M714.67,469.94l-1.58-.25c0,.29.31.72-.12,1Z" transform="translate(-674 -455)"/><polygon class="cls-1" points="41.45 14.59 40.67 14.95 41.26 15.04 41.45 14.59"/><path class="cls-1" d="M723.07,471.75a4.41,4.41,0,0,1,2.28-.6,11.68,11.68,0,0,0-2.74-.34C722.49,471.16,722.1,471.79,723.07,471.75Z" transform="translate(-674 -455)"/><path class="cls-1" d="M719.69,471.44l.16-.06C719.75,471.28,719.68,471.25,719.69,471.44Z" transform="translate(-674 -455)"/><path class="cls-1" d="M733.7,471.16a1.48,1.48,0,0,1-.13-.21l0,.19Z" transform="translate(-674 -455)"/><path class="cls-1" d="M722.46,470.61a1.38,1.38,0,0,0-1.48.4,8.36,8.36,0,0,1,1.63-.2C722.67,470.66,722.68,470.55,722.46,470.61Z" transform="translate(-674 -455)"/><path class="cls-1" d="M728.12,472.27a8.18,8.18,0,0,0-1.18-.61C727.28,472,728,472.56,728.12,472.27Z" transform="translate(-674 -455)"/><path class="cls-1" d="M720.08,471.68l-.11.05C720.2,472,720.17,471.85,720.08,471.68Z" transform="translate(-674 -455)"/><path class="cls-1" d="M720.08,471.68a4,4,0,0,0,.9-.67,4.54,4.54,0,0,0-1.13.37A1.4,1.4,0,0,1,720.08,471.68Z" transform="translate(-674 -455)"/><path class="cls-1" d="M736.23,464.05c-.12,1-1.92,2-3.47.87-1.52.77-.53,4.15.81,6,0-.44,0-.86,1.61-1.46-.55-.56-3.48-1.31-2.16-2.24,2.08-.53,1.71.36,2.72.9-.86-1.27,2.64-1.86,2.19-3.74l-1.82.66C736.07,464.78,736.74,464.31,736.23,464.05Z" transform="translate(-674 -455)"/><path class="cls-1" d="M730.57,470.85l-.64.13a5.53,5.53,0,0,1,2.23,1.39c1.08-.5,1.3-.88,1.38-1.23l-3.19-.14Z" transform="translate(-674 -455)"/><path class="cls-1" d="M727,471c.5-1.12,2.06-1.59,1.11-2.8-1.9.08-1.33.94-2.47,1.42,3.06-.28-.87.62,1.34,1.25a7.9,7.9,0,0,1-1.66.3,10.18,10.18,0,0,1,1.59.51l-.07-.07h0v0c-.13-.13-.17-.22,0-.14l.06,0A1.39,1.39,0,0,1,727,471c.89.23.14.29-.14.42l0,.16,0,0,3.06-.61A9.32,9.32,0,0,0,727,471Z" transform="translate(-674 -455)"/><path class="cls-1" d="M711.65,465.38a.35.35,0,0,1,.1.26C712,465.5,712,465.41,711.65,465.38Z" transform="translate(-674 -455)"/><path class="cls-1" d="M712.91,466.06c-.22.15-.4.6-1.13.48-.63-.33,0-.53,0-.9-.43.29-1.53.8-.16,1.34l.22-.15c1.23.38,2.82,1.78,2.6,1.93A7.78,7.78,0,0,0,712.91,466.06Z" transform="translate(-674 -455)"/><path class="cls-1" d="M720.06,468.23l2.55-.55-1.3-1,.07.58C719.93,467.07,720.24,467.79,720.06,468.23Z" transform="translate(-674 -455)"/><polygon class="cls-1" points="59.99 16.71 59.65 17.89 61.13 16.23 59.99 16.71"/><polygon class="cls-1" points="63.31 16.57 63.19 17.6 64.06 16.98 63.31 16.57"/><path class="cls-1" d="M924.42,458.85l.75-.3A2.3,2.3,0,0,0,924.42,458.85Z" transform="translate(-674 -455)"/><path class="cls-1" d="M919,458.77l-.13.51C919.11,459,919.21,458.8,919,458.77Z" transform="translate(-674 -455)"/><path class="cls-1" d="M818.74,471.46c1.09,1,2.31,2.44,2.18,1.28l-.33-1.12A2.56,2.56,0,0,1,818.74,471.46Z" transform="translate(-674 -455)"/><path class="cls-1" d="M874.51,464.74l-.32-.34c-.26.39-.51.75-.74,1.08Z" transform="translate(-674 -455)"/><path class="cls-1" d="M875.28,460.09l1.44.72A5,5,0,0,0,875.28,460.09Z" transform="translate(-674 -455)"/><path class="cls-1" d="M954.06,457.65l.88-1.14C953.57,456.52,954.17,457.09,954.06,457.65Z" transform="translate(-674 -455)"/><path class="cls-1" d="M771.27,471.16a6.64,6.64,0,0,0,2.35.67C772.48,471.19,771.57,470.22,771.27,471.16Z" transform="translate(-674 -455)"/><path class="cls-1" d="M922.28,470.77c.46-.2.66-.43.64-.68C922.45,470.29,922.18,470.5,922.28,470.77Z" transform="translate(-674 -455)"/><path class="cls-1" d="M776.34,471.83l-.5-.27a5.87,5.87,0,0,1-2.22.27A2.18,2.18,0,0,0,776.34,471.83Z" transform="translate(-674 -455)"/><path class="cls-1" d="M1061.57,458.58l.25.14C1061.84,458.57,1061.73,458.56,1061.57,458.58Z" transform="translate(-674 -455)"/><path class="cls-1" d="M1092.89,469.93a7.8,7.8,0,0,1-1.28.08A2.45,2.45,0,0,0,1092.89,469.93Z" transform="translate(-674 -455)"/><path class="cls-1" d="M750.65,472.06c-.7.07-.11.13,0,0Z" transform="translate(-674 -455)"/><path class="cls-1" d="M747.23,467.61a.72.72,0,0,0,.28-.55A.94.94,0,0,1,747.23,467.61Z" transform="translate(-674 -455)"/><path class="cls-1" d="M783.35,464.83h.06C783.2,464.61,783.23,464.66,783.35,464.83Z" transform="translate(-674 -455)"/><path class="cls-1" d="M749.59,471.55a4,4,0,0,0,.9.33A4.7,4.7,0,0,0,749.59,471.55Z" transform="translate(-674 -455)"/><path class="cls-1" d="M749.73,472.08l-.61-.11C749,472.16,749.11,472.28,749.73,472.08Z" transform="translate(-674 -455)"/><path class="cls-1" d="M751.63,472a3.88,3.88,0,0,1-1.14-.12c.14.08.2.15.16.18Z" transform="translate(-674 -455)"/><path class="cls-1" d="M1004,461.59s.1.07.15.11C1004.83,461.23,1004.52,461.31,1004,461.59Z" transform="translate(-674 -455)"/><path class="cls-1" d="M837,459.78l-.08.05.11,0Z" transform="translate(-674 -455)"/><path class="cls-1" d="M839.57,458.94c-1.08,1.4-1.69,1.23-2.5.93l.83,3.24Z" transform="translate(-674 -455)"/><path class="cls-1" d="M937.41,458.52l-1.77-1c2.14-1.66,3.69-1.09,2-2.51-.25,3.52-6.89.36-7.14,3.88l-1.17-.74c.34,0,.39-.18.72-.14-2.27-1.68-1.69,2.54-4.62,2-1-.27-1.73-.78-1-1.19l-2.28.87c-.66-.07-.5-.68.16-.62l-3.47.29,0-.11a15.3,15.3,0,0,1-2.17,1.77c-.88-.51.44-.37.22-.81l-1.92.85c-.79-.91.81-1.8,2.13-1.67-1.79-3.51-1.59.89-5.46-1.16l1.81-.45c-1.17-2-2.58-1.27-4.64-2.52.49.65,4.11,3.14,2,4a2.39,2.39,0,0,0-2.48.31c0-1.25-1.11-.94-2.49-.87l.1-1.66c-1.49.48-1.37,1.32-2.25,2.07-1.65-.16-2-1.45-2.39-2.53-2.65-.26,1.84,2.06-1.3,2.37-2.21-.63-3.76.05-6.4,1-1.54-.57.27-1-.28-1.49L892,459.87c-.33,0-.23-.44-.17-.64-1.15.51-.1,1.65-1.91,2.11-.49,1.82-3.72-2.67-6-.6-.55-.47.27-1,.1-1.66-3.08,1.36-2.64,1-5.16,2.82l-2.16-1.09c1.58,1.25-.44,2.72-2.21,3.93a16.32,16.32,0,0,0,1.36,1.38l-2.82.89c-.34-.28-.06-.84.4-1.53l-.51.39c-1-.61-.49-1.57.23-2.49l1,1a4.9,4.9,0,0,0,1.21-3.09,2.13,2.13,0,0,1-.93.45c.18-.28.3-.52.22-.69s-.39.19-.86.62l-.64-1.85-.15.73-3.7-1.15c-2.65,1.86-5,4.59-9.15,5.36,1-1.36.23-2.21.28-3.82,1.15,1.7,3.26-.72,5.43-.38-1.13-.18-.88-.94-.6-1.21l-3.88,1.55c.09-1.31-.82-1-1.83-1.53.76,2.6-2.9,1.73-4.48,2.53-.09-.88.28-1.76,2.21-1.55-2.12-2-2.75,3-4.83,1.38.47,0,.72.11.91-.33-1.1.78-3.79.16-3.15-.6l.46,0c-3.12-.3-9.5,0-10,2.19a17.73,17.73,0,0,1,.6-3.1l-5.57,7.41c.49-1.89-1.4-6.4,1.19-7.47a3.87,3.87,0,0,0-3.23.09c.51.26,1.27,2.73.57,2.91-1.9-2.11-1.32-1.13-3.66-2.93.76.41-.09,3.37-1.29,3.28.19-.44-.1-2.93.34-3.24l-3,2.92c.75-.53.13-2.47-.54-3.29.31.56-2.58-.06-3.38.23l1.27.67c-3.38-.44-3.34,4.1-6.69,3.95.41-.6,1-3.71-.7-4.07-.78,1.49-3.46,7.18-6.42,8.33l-.57-.86-2.27,1A53.46,53.46,0,0,1,815,460c-1.27-.67-.36-1-2.25-.92-.67-.8,1-1.22,1.59-1.26l-4.41-.52c.2,1.74-3.36,1.75-3.2,3.2l4.79-1.81c.19,1.74-2.77,4.95-5.89,4.64-.79-.69.59-3.1.53-3.68-.41.6-3,1.14-3.25.72l1.32-.93c-1.73-.66-2.83,2.31-4.92.65-.72-.12-2.15-2.25-2.28-1.22,1.18,2,1.41,8.14.62,9.63-.25-.13-3.78-1.9-4.6-2.88-1.19-1.56,1.78-3.72.77-5.06,0,.48-.7,1.07-1,1.26-.75-.41.32-1.48-1.33-1.26-.27,1.77-3.34-.15-.77,1.49-1.61.51-1.71-.36-3.6-.28.6,1.14-1.7,3.88-3.31,4.38a2.12,2.12,0,0,0-.44-1.3c-3.3-.16-5.07-1-8.15-1-.28-.42-1.77-.94-1.14-1.7a2.92,2.92,0,0,1-1.79,1c-1.84-1.52,2.11-.23.71-2.07-.12,1-2.45,1.42-3.8,2.06.41,1.59,3.12.3,4.47-.34,0,2.19-2.35,4.48-5.56,5.49-2.55.54-1.11-1.41-1.55-1.1-4.8-.39-4.09,3.82-8.07,2.24-1.59-1.39-.08-2.77-.43-3.78,2.08-.52,3.2.89,4.61.83l-1.74-.66a3.27,3.27,0,0,1,2.81-.41c-1.32-1.25-8.11-.24-11.81-1.4-.66.47-1.79,1-1.25,1.52l1.17-.2c1.07,1.12-2.21,1.55-.73,2.08-1.57.79-3.33,2-5.54,1.4l-.42-1.59c.05.46,1.45.94,2.07.46-.92.7-3.39-2.15-4.4-.07l1.55,1.1c-1.58.8-3.53,2.48-5.49,2,.89,1.57.45-.18,1.85,1.66-1.21-2.29,5,.1,3.07-2.31,1.43,2.14,2.48.91,4.34,2.73,0-.53-.66-1,1-.75a2.28,2.28,0,0,1,.36-.46l.11,0-.09-.06c.07-.08.08-.1,0,0a2,2,0,0,1-.84-.8c.81-1.21,3.43-1.16,4.32-1.79,1,.25-.41.6.12,1.16l1.32-.93c.13,1.16,2.6,1.93.3,2.62l2.07,0a4.87,4.87,0,0,0,3.93.42c1,.25,2.47-1.29,1.62-.38l3.24-.72,0,.29c3.21.15,6.6-1.93,10.26.17a8,8,0,0,1,4-.32l.35,1c1.39-.35,4.16,1,4.76,0,1.49,2.71,6.72.59,9.15,1.07l.1-1.31a18.51,18.51,0,0,0,5.36-.83l-.12-1.16c1.79-1,4.61.82,7.45.7-.2.45-.92.33-1.43.06,3.39,2.63,7.16-1.9,10.23,0a1.72,1.72,0,0,1,1.86,0,.33.33,0,0,0-.19.06l.32,0,1.06.62a3.51,3.51,0,0,0-.89-.63,9.14,9.14,0,0,0,2.36-.46l.38,1.25.2,0c.86.46.69-.6.23-1.53a4.46,4.46,0,0,0,1.17-.76c.69,2,2.3-.68,3.26,1.47.59-1,4.41-.79,4.88-3,0,.29.29.42-.18.44a3.19,3.19,0,0,0,2.83-.12l.42,1.59,2.14-2.13c1.3,1,1.83,1.53.55,2.74,3.11-1.87,2.52-.7,5.17-2.56l-.13,1c1,0,2.46-1.41,3-.56,2.11,1.95,10.48.27,15.92,2.08-1.06-3,2.52,1.35,2.74-1,.32.72,1.07,1.12.19,1.74,2.78-.7,4.17,1.13,6.09-.84.32.72-.59,1.05-.31,1.47.22-.15.88-.62,1.17-.19s-.41.6-.85.91c2.84-.12,3.12-2.32,3.33-4.39,1.44,1,2.15.84,3.19-.52.5.68,1.34,1.39-.43,1.63,1,.1,6.06,1,6.16-.67.31.43,1.38.13,1.65-.06a29.55,29.55,0,0,0,4.6.09l-.61-.27c.86-2,1.82-.45,3.58-.69l-.05.2c4,1.45,1.74-.69,5.72,1l-.21-1.24c.37-2.68,3.52,1.57,5.84.55l-.84-.71c1.26-.92,3.53,3.64,4.8,4,.27.23-.44.38-.82.55,3.31,1.57.42-1.63,2.9-2,.45.88-.59,2.23,1.08,2.4.82.71,4.82-2.86,7.09-1.17-.5-.68-1-1.35.16-1.86,1.76-.24,4.75,2.56,6.34.42a.73.73,0,0,1,.32.53c1.35-.55,4.38-.91,5.19-2.07,1.24,4.3,8.36-2.09,8.33,1.88l4.14-.22-.1.41a4.65,4.65,0,0,0,4.51-1.64c.61.27.16.64.11.85,3.87.79,4.25.62,7.5-1.35l.33,1.29c.88-.75,5.59,2,9.38.51a.84.84,0,0,1-.41.58c4.26-1.51,10.21,3.56,11.78-1.12l2.81-1.15c-3.64-.36.54-2-1-2.81,1.44-.27,3.71,1.42,2,1.65l-.28-.23c-.64,2.44,4.53.87,4.43,2.53,7.17-.12,14.16,1.22,20.87,1.33l-.77-1.9,2.34.11c.61.45.82,1.48-.85,1.41.88,1.07,2.8-.9,2.85-1.31,3.27.76-1.28,2.21-.27,2.25l1.36-.14-.31-.22c1.11-.77,1.2-1.59,3.21-1.5,1.27.38.65,1.16,1.15,1.24,0,.13.17.2.77,0l2.95.16-1.18-1.49c1.31-.74,2.78.07,1.42-1.62,2,2.61,11,.94,12.23,1.75,1.83-1.09,3.64-1.07,5.88-.94-.56-.31-.89-2,1-1.79-.71,3.48,3.54,1.51,5.1,4-1.4-1.66,5.49-.41,3.3-2.76,1.61.28.1,1.3,1.32,2.12,3.84-1.35,8.46.87,13.2.41.07-.45-.72-1.15.3-1.83l2.5,2.28c.94-.22.86-2.63,2.57-1.05-.24-.38-.6-1,0-1.11,9.29,2.23,19-1.81,28.42,2.36-1.28-.88-.43-1,.55-1-.64-.21,0-1.12-.11-1.74l4,1.72c.72-1.72,4.23-.12,4.64-1.76l-1.25.3c1.67-1.94-2.32-4.3-2.08-6.78-1.86,2.19-4.91-3.26-8-.11-.67-.51.58-.8.22-1.38-.78,1.06-1.71,1.29-3.45.81l.2-.26c-4.87.26-7-.79-12.43-1.49l.4,1.22a4,4,0,0,1-2-.85c-1.35,1.86,3.3.11,2.07,2.16-1.56-2.5-8.29,0-9.34-2.88-1.81,0,.53,1.42-1.28,1.4l-.48-.76-.46,1a2.08,2.08,0,0,1-1.82-1.78c.28.08.81-.18,1.12-.24-1.54-.9-4.33.31-4.86,0l1.74.47c-4.94.72-11-.29-15.74,1.27l.37.58c-3.65,1.07-2.92-.63-6.92-.14l.15-.14a4.66,4.66,0,0,1-3,.81c1-.68-1.9-1.32-.57-2.07-4,1.15-2,.9-4.56,3.05l-.6-1a3.65,3.65,0,0,1-3,1.58c1.63-.82-1.28-1.46.56-2.56-4.19-2.1-6.23,2.13-8.15-.95-1.92,2.66,3.63,1.48,2.55,2,.9.87-1.59,2-2.9,1.72-1.34-.06-2.28-3.4-5.65-3.35.34,0,.36-.19.69-.18-1.25-.68-2.46.92-4-.18-.87,1.61-2-.09-2.26,2l3.09-.48c-1.75.54-3.39,2.94-6.28,1.77a5,5,0,0,1,1.68-1.26c-.85-.6-1.63.4-2.5-.22.25-2.05,3.75-.45,5.63-2-.91-.86-3.55,1.49-2.61-.73-1.35,2.82-3.32-.36-5.6,1.8l.15-1.23a3.84,3.84,0,0,1-1.77.74l1.2-1.6c-1.84,1.37-3.55-1.18-5.33-.44,3.71,0,.84,1.48,2.4,2.37-4.57,1.65-2.63-3.21-7.74-2.62.69-.18,2.6.74,1.51,1.31a6.75,6.75,0,0,1-2.86-1.37c-3.39.25.52,1.26-.92,2-1.16-1.5-1.67.61-3.15,1.09v-1.25c-3.87-.81-1,2.6-4.51,1.63l1.47-1.73-1.81.45.37-1.43c-2,1.06-2.59.79-4.52.39.45.88-.25,2.27-2,2.31-1.17-.75.65-1.19-1.78-1,.55-.78,1.15-1.77,2.21-.61.11-.41.54-.79.65-1.19-1.26-.86-3.16-.2-4-.19a2.05,2.05,0,0,1,.95.3l-3.52,1.73c-.55-.47-.11-.85.32-1.22-.71.14-1.2.71-2.25.82.27-1,.21-2.07,1.69-2.54l-3.35,1.12c-.23-.44-1.72-1.21-1.29-1.59-1.86-.59-4.56,2-7,1.19a1.48,1.48,0,0,1-.91.53c-2.31-.23-4.37-1.48-7.11-.08l-1.56-1.83c-2.15.42,2.11,2.3-1.47,3-2.53.58-.94-1.56-1.83-2.06-1.26.91-3.45,2.78-5.78,1.3C936.09,458.39,936.69,458.66,937.41,458.52Zm-26.5.81c.51-.26,1.53-1.07,1.91-.34C912.23,460.43,911.78,459.74,910.91,459.33Zm-40.3,3c.38-.41,1-.21,1.64.26A2.39,2.39,0,0,1,870.61,462.34ZM758.36,471l0-.06C759.56,471.47,759.15,471.28,758.36,471ZM756,470.5a.35.35,0,0,0-.12.52c.16-.31.7-.34,1.3-.25C757,470.45,756.69,470.22,756,470.5Zm255.5-.49-.46-.33C1012.06,469.32,1011.77,469.65,1011.48,470Z" transform="translate(-674 -455)"/><path class="cls-1" d="M875.18,460.63a1.65,1.65,0,0,1,.22.68C875.6,461.1,875.6,460.85,875.18,460.63Z" transform="translate(-674 -455)"/><path class="cls-1" d="M953.9,457.86l.08,0a.7.7,0,0,0,.08-.23Z" transform="translate(-674 -455)"/><path class="cls-1" d="M792.83,459.9a2,2,0,0,1,.95.64C793.8,460.24,793.58,460,792.83,459.9Z" transform="translate(-674 -455)"/><path class="cls-1" d="M743.37,472.63l1.52-.33a2,2,0,0,1-1.37-.41C743.56,472.18,743.85,472.61,743.37,472.63Z" transform="translate(-674 -455)"/><path class="cls-1" d="M730.14,464.89c-.22.15-.47,0-.69.17l.06.58C730.46,465.6,731.12,465.13,730.14,464.89Z" transform="translate(-674 -455)"/><path class="cls-1" d="M742,468.47c-.12-1.05-1.08-.69-2.15-.5H740C739.69,469.45,740.83,469,742,468.47Z" transform="translate(-674 -455)"/><path class="cls-1" d="M739.57,468a3.29,3.29,0,0,1-1,0C738.46,468.62,739,468.16,739.57,468Z" transform="translate(-674 -455)"/><path class="cls-1" d="M753,471.2c-.51-.27-.32,1.34-.6.92C751.79,473.45,755.73,470.49,753,471.2Z" transform="translate(-674 -455)"/><polygon class="cls-1" points="67.09 10.01 67.48 11.3 68.08 10.26 67.09 10.01"/><path class="cls-1" d="M749.52,466l-1.7-.36c0,.22-.19.35-.46.44C748.41,466.08,749.56,466.34,749.52,466Z" transform="translate(-674 -455)"/><path class="cls-1" d="M747.36,466a2.43,2.43,0,0,0-1.37.22A5.58,5.58,0,0,0,747.36,466Z" transform="translate(-674 -455)"/><polygon class="cls-1" points="69.43 9.61 69.93 9.89 71.14 9.98 69.43 9.61"/><path class="cls-1" d="M767.86,466.21l1.86-.37c.19-.45-.32-.72-1-.54C768.27,465.61,767.58,465.78,767.86,466.21Z" transform="translate(-674 -455)"/><path class="cls-1" d="M762.23,462.65c.5.28.54.56.82,1l.06-1.61Z" transform="translate(-674 -455)"/><path class="cls-1" d="M767.66,462.28c.19-.45,2.7-1.28.34-1.18C767.81,461.54,766,461.91,767.66,462.28Z" transform="translate(-674 -455)"/><polygon class="cls-1" points="121.71 9.31 121.24 9.33 121.31 11.97 121.71 9.31"/><path class="cls-1" d="M820.43,458c-2.2-.63-.52,1.63-2.51.84-.52.62,1.63.64,1.1,1.18C820.35,459.37,821.05,459.73,820.43,458Z" transform="translate(-674 -455)"/><path class="cls-1" d="M819,460a4.13,4.13,0,0,0-.68.4A2.23,2.23,0,0,0,819,460Z" transform="translate(-674 -455)"/><polygon class="cls-1" points="424.09 16.35 425.51 16.9 424.59 16.01 424.09 16.35"/><path class="cls-1" d="M1100.81,469.39l.34,1.68.85-1.52C1101.68,469.62,1101.06,469.77,1100.81,469.39Z" transform="translate(-674 -455)"/><path class="cls-1" d="M907,455.94l-.11.4c.22.44.55.47,1.21.55Z" transform="translate(-674 -455)"/><polygon class="cls-1" points="252.2 2.2 251.87 2.16 252.49 3.69 252.2 2.2"/><path class="cls-1" d="M942.35,455.26c-.66-.06-1.43.28-2.09.21C941.69,455.2,942.53,457.16,942.35,455.26Z" transform="translate(-674 -455)"/></svg>