<svg id="Calque_1" data-name="Calque 1" xmlns="http://www.w3.org/2000/svg" viewBox="0 0 428 20"><defs><style>.cls-1{fill:#cc6;}</style></defs><title>line-return</title><path class="cls-1" d="M1101.5,458.69c.63.09.41-1,.5-1.18C1100.94,457.75,1101.53,459,1101.5,458.69Z" transform="translate(-674 -455)"/><polygon class="cls-1" points="417.07 6.16 417.25 5.71 415.72 6.8 417.07 6.16"/><path class="cls-1" d="M1081.31,461.14c.93,1.85,3.54-.3,5.28.35l.28.43.79-1.49C1085.55,460.66,1082.8,461.65,1081.31,461.14Z" transform="translate(-674 -455)"/><path class="cls-1" d="M1076.11,457.13c.32.72-1.12.62,1.22.23a1.77,1.77,0,0,1-.22-.18A7,7,0,0,1,1076.11,457.13Z" transform="translate(-674 -455)"/><path class="cls-1" d="M1077.11,457.18c1-.06-.68-.61,0,0Z" transform="translate(-674 -455)"/><path class="cls-1" d="M1072.36,457.59l1.36-.64c-.29-.43-1.49-.52-1-.83C1071.29,456.47,1071.57,456.89,1072.36,457.59Z" transform="translate(-674 -455)"/><path class="cls-1" d="M1071.08,458.94l.7-.27C1071.66,458.49,1071.47,458.43,1071.08,458.94Z" transform="translate(-674 -455)"/><path class="cls-1" d="M1073.27,458.09l-1.49.58c.2.3.22.9.68-.21C1072.34,459,1072.64,458.48,1073.27,458.09Z" transform="translate(-674 -455)"/><path class="cls-1" d="M1074.11,458.37c.76.41,1.74.66.38,1.3C1077.08,459.42,1076.7,458.12,1074.11,458.37Z" transform="translate(-674 -455)"/><path class="cls-1" d="M1080.82,463.05l1,.54.88-.62C1082.27,463.28,1080.75,462.47,1080.82,463.05Z" transform="translate(-674 -455)"/><path class="cls-1" d="M1063.93,456.63c-.08.39.46,1.05.56,1.55l1-.45C1065,457.46,1064,457.21,1063.93,456.63Z" transform="translate(-674 -455)"/><path class="cls-1" d="M1064.49,458.18l-1.5.68C1064.33,458.94,1064.57,458.62,1064.49,458.18Z" transform="translate(-674 -455)"/><polygon class="cls-1" points="396.84 5.99 399.3 4.58 396.37 6.01 396.84 5.99"/><polygon class="cls-1" points="384.22 1.58 385.07 0.67 383.56 2.05 384.22 1.58"/><path class="cls-1" d="M1054.43,456.74c.63-.75-.86-1.28-.19-1.74a6.09,6.09,0,0,0-2.7,1.37A3.3,3.3,0,0,1,1054.43,456.74Z" transform="translate(-674 -455)"/><path class="cls-1" d="M1050.21,457.21a7.37,7.37,0,0,0,1.33-.84A3.83,3.83,0,0,0,1050.21,457.21Z" transform="translate(-674 -455)"/><path class="cls-1" d="M1060.45,458.67a1.83,1.83,0,0,0-1.18-1.13l.59,1.11Z" transform="translate(-674 -455)"/><path class="cls-1" d="M1059.88,458.68l0,0-1.27-.06Z" transform="translate(-674 -455)"/><path class="cls-1" d="M1060.6,458.67h-.15C1060.5,458.77,1060.54,458.81,1060.6,458.67Z" transform="translate(-674 -455)"/><path class="cls-1" d="M1066.92,460c-.88.62-2.71,1.28-.94,2.23C1066.61,461.46,1065.6,460.92,1066.92,460Z" transform="translate(-674 -455)"/><path class="cls-1" d="M1061.33,460.06l1.58.25c0-.29-.31-.72.12-1Z" transform="translate(-674 -455)"/><polygon class="cls-1" points="386.55 5.41 387.32 5.05 386.74 4.96 386.55 5.41"/><path class="cls-1" d="M1052.93,458.25a4.41,4.41,0,0,1-2.28.6,11.68,11.68,0,0,0,2.74.34C1053.51,458.84,1053.9,458.21,1052.93,458.25Z" transform="translate(-674 -455)"/><path class="cls-1" d="M1056.31,458.56l-.16.06C1056.25,458.72,1056.32,458.75,1056.31,458.56Z" transform="translate(-674 -455)"/><path class="cls-1" d="M1042.3,458.84a1.48,1.48,0,0,1,.13.21l0-.19Z" transform="translate(-674 -455)"/><path class="cls-1" d="M1053.54,459.39a1.38,1.38,0,0,0,1.48-.4,8.36,8.36,0,0,1-1.63.2C1053.33,459.34,1053.32,459.45,1053.54,459.39Z" transform="translate(-674 -455)"/><path class="cls-1" d="M1047.88,457.73a8.18,8.18,0,0,0,1.18.61C1048.72,458,1048,457.44,1047.88,457.73Z" transform="translate(-674 -455)"/><path class="cls-1" d="M1055.92,458.32l.11-.05C1055.8,458,1055.83,458.15,1055.92,458.32Z" transform="translate(-674 -455)"/><path class="cls-1" d="M1055.92,458.32a4,4,0,0,0-.9.67,4.54,4.54,0,0,0,1.13-.37A1.4,1.4,0,0,1,1055.92,458.32Z" transform="translate(-674 -455)"/><path class="cls-1" d="M1039.77,466c.12-1,1.92-2,3.47-.87,1.52-.77.53-4.15-.81-6,0,.44,0,.86-1.61,1.46.55.56,3.48,1.31,2.16,2.24-2.08.53-1.71-.36-2.72-.9.86,1.27-2.64,1.86-2.19,3.74l1.82-.66C1039.93,465.22,1039.26,465.69,1039.77,466Z" transform="translate(-674 -455)"/><path class="cls-1" d="M1045.43,459.15l.64-.13a5.53,5.53,0,0,1-2.23-1.39c-1.08.5-1.3.88-1.38,1.23l3.19.14Z" transform="translate(-674 -455)"/><path class="cls-1" d="M1049,459c-.5,1.12-2.06,1.59-1.11,2.8,1.9-.08,1.33-.94,2.47-1.42-3.06.28.87-.62-1.34-1.25a7.9,7.9,0,0,1,1.66-.3,10.18,10.18,0,0,1-1.59-.51l.07.07h0v0c.13.13.17.22,0,.14l-.06,0a1.39,1.39,0,0,1-.14.42c-.89-.23-.14-.29.14-.42,0,0,0-.11,0-.16l0,0-3.06.61A9.32,9.32,0,0,0,1049,459Z" transform="translate(-674 -455)"/><path class="cls-1" d="M1064.35,464.62a.35.35,0,0,1-.1-.26C1064.05,464.5,1064,464.59,1064.35,464.62Z" transform="translate(-674 -455)"/><path class="cls-1" d="M1063.09,463.94c.22-.15.4-.6,1.13-.48.63.33,0,.53,0,.9.43-.29,1.53-.8.16-1.34l-.22.15c-1.23-.38-2.82-1.78-2.6-1.93A7.78,7.78,0,0,0,1063.09,463.94Z" transform="translate(-674 -455)"/><path class="cls-1" d="M1055.94,461.77l-2.55.55,1.3,1-.07-.58C1056.07,462.93,1055.76,462.21,1055.94,461.77Z" transform="translate(-674 -455)"/><polygon class="cls-1" points="368.01 3.29 368.35 2.11 366.87 3.77 368.01 3.29"/><polygon class="cls-1" points="364.69 3.43 364.81 2.4 363.94 3.02 364.69 3.43"/><path class="cls-1" d="M851.58,471.15l-.75.3A2.3,2.3,0,0,0,851.58,471.15Z" transform="translate(-674 -455)"/><path class="cls-1" d="M857,471.23l.13-.51C856.89,471,856.79,471.2,857,471.23Z" transform="translate(-674 -455)"/><path class="cls-1" d="M957.26,458.54c-1.09-1-2.31-2.44-2.18-1.28l.33,1.12A2.56,2.56,0,0,1,957.26,458.54Z" transform="translate(-674 -455)"/><path class="cls-1" d="M901.49,465.26l.32.34c.26-.39.51-.75.74-1.08Z" transform="translate(-674 -455)"/><path class="cls-1" d="M900.72,469.91l-1.44-.72A5,5,0,0,0,900.72,469.91Z" transform="translate(-674 -455)"/><path class="cls-1" d="M821.94,472.35l-.88,1.14C822.43,473.48,821.83,472.91,821.94,472.35Z" transform="translate(-674 -455)"/><path class="cls-1" d="M1004.73,458.84a6.64,6.64,0,0,0-2.35-.67C1003.52,458.81,1004.43,459.78,1004.73,458.84Z" transform="translate(-674 -455)"/><path class="cls-1" d="M853.72,459.23c-.46.2-.66.43-.64.68C853.55,459.71,853.82,459.5,853.72,459.23Z" transform="translate(-674 -455)"/><path class="cls-1" d="M999.66,458.17l.5.27a5.87,5.87,0,0,1,2.22-.27A2.18,2.18,0,0,0,999.66,458.17Z" transform="translate(-674 -455)"/><path class="cls-1" d="M714.43,471.42l-.25-.14C714.16,471.43,714.27,471.44,714.43,471.42Z" transform="translate(-674 -455)"/><path class="cls-1" d="M683.11,460.07a7.8,7.8,0,0,1,1.28-.08A2.45,2.45,0,0,0,683.11,460.07Z" transform="translate(-674 -455)"/><path class="cls-1" d="M1025.35,457.94c.7-.07.11-.13,0,0Z" transform="translate(-674 -455)"/><path class="cls-1" d="M1028.77,462.39a.72.72,0,0,0-.28.55A.94.94,0,0,1,1028.77,462.39Z" transform="translate(-674 -455)"/><path class="cls-1" d="M992.65,465.17h-.06C992.8,465.39,992.77,465.34,992.65,465.17Z" transform="translate(-674 -455)"/><path class="cls-1" d="M1026.41,458.45a4,4,0,0,0-.9-.33A4.7,4.7,0,0,0,1026.41,458.45Z" transform="translate(-674 -455)"/><path class="cls-1" d="M1026.27,457.92l.61.11C1027,457.84,1026.89,457.72,1026.27,457.92Z" transform="translate(-674 -455)"/><path class="cls-1" d="M1024.37,458a3.88,3.88,0,0,1,1.14.12c-.14-.08-.2-.15-.16-.18Z" transform="translate(-674 -455)"/><path class="cls-1" d="M772,468.41s-.1-.07-.15-.11C771.17,468.77,771.48,468.69,772,468.41Z" transform="translate(-674 -455)"/><path class="cls-1" d="M939,470.22l.08-.05-.11,0Z" transform="translate(-674 -455)"/><path class="cls-1" d="M936.43,471.06c1.08-1.4,1.69-1.23,2.5-.93l-.83-3.24Z" transform="translate(-674 -455)"/><path class="cls-1" d="M838.59,471.48l1.77,1c-2.14,1.66-3.69,1.09-2,2.51.25-3.52,6.89-.36,7.14-3.88l1.17.74c-.34,0-.39.18-.72.14,2.27,1.68,1.69-2.54,4.62-2,1,.27,1.73.78,1,1.19l2.28-.87c.66.07.5.68-.16.62l3.47-.29,0,.11a15.3,15.3,0,0,1,2.17-1.77c.88.51-.44.37-.22.81l1.92-.85c.79.91-.81,1.8-2.13,1.67,1.79,3.51,1.59-.89,5.46,1.16l-1.81.45c1.17,2,2.58,1.27,4.64,2.52-.49-.65-4.11-3.14-2-4a2.39,2.39,0,0,0,2.48-.31c0,1.25,1.11.94,2.49.87l-.1,1.66c1.49-.48,1.37-1.32,2.25-2.07,1.65.16,2,1.45,2.39,2.53,2.65.26-1.84-2.06,1.3-2.37,2.21.63,3.76-.05,6.4-1,1.54.57-.27,1,.28,1.49l1.37-1.32c.33,0,.23.44.17.64,1.15-.51.1-1.65,1.91-2.11.49-1.82,3.72,2.67,6,.6.55.47-.27,1-.1,1.66,3.08-1.36,2.64-1,5.16-2.82l2.16,1.09c-1.58-1.25.44-2.72,2.21-3.93a16.32,16.32,0,0,0-1.36-1.38L903,463c.34.28.06.84-.4,1.53l.51-.39c1,.61.49,1.57-.23,2.49l-1-1a4.9,4.9,0,0,0-1.21,3.09,2.13,2.13,0,0,1,.93-.45c-.18.28-.3.52-.22.69s.39-.19.86-.62l.64,1.85.15-.73,3.7,1.15c2.65-1.86,5-4.59,9.15-5.36-1,1.36-.23,2.21-.28,3.82-1.15-1.7-3.26.72-5.43.38,1.13.18.88.94.6,1.21l3.88-1.55c-.09,1.31.82,1,1.83,1.53-.76-2.6,2.9-1.73,4.48-2.53.09.88-.28,1.76-2.21,1.55,2.12,2,2.75-3,4.83-1.38-.47,0-.72-.11-.91.33,1.1-.78,3.79-.16,3.15.6l-.46,0c3.12.3,9.5,0,10-2.19a17.73,17.73,0,0,1-.6,3.1l5.57-7.41c-.49,1.89,1.4,6.4-1.19,7.47a3.87,3.87,0,0,0,3.23-.09c-.51-.26-1.27-2.73-.57-2.91,1.9,2.11,1.32,1.13,3.66,2.93-.76-.41.09-3.37,1.29-3.28-.19.44.1,2.93-.34,3.24l3-2.92c-.75.53-.13,2.47.54,3.29-.31-.56,2.58.06,3.38-.23l-1.27-.67c3.38.44,3.34-4.1,6.69-3.95-.41.6-1,3.71.7,4.07.78-1.49,3.46-7.18,6.42-8.33l.57.86,2.27-1A53.46,53.46,0,0,1,961,470c1.27.67.36,1,2.25.92.67.8-1,1.22-1.59,1.26l4.41.52c-.2-1.74,3.36-1.75,3.2-3.2l-4.79,1.81c-.19-1.74,2.77-4.95,5.89-4.64.79.69-.59,3.1-.53,3.68.41-.6,3-1.14,3.25-.72l-1.32.93c1.73.66,2.83-2.31,4.92-.65.72.12,2.15,2.25,2.28,1.22-1.18-2-1.41-8.14-.62-9.63.25.13,3.78,1.9,4.6,2.88,1.19,1.56-1.78,3.72-.77,5.06,0-.48.7-1.07,1-1.26.75.41-.32,1.48,1.33,1.26.27-1.77,3.34.15.77-1.49,1.61-.51,1.71.36,3.6.28-.6-1.14,1.7-3.88,3.31-4.38a2.12,2.12,0,0,0,.44,1.3c3.3.16,5.07,1,8.15,1,.28.42,1.77.94,1.14,1.7a2.92,2.92,0,0,1,1.79-1c1.84,1.52-2.11.23-.71,2.07.12-1,2.45-1.42,3.8-2.06-.41-1.59-3.12-.3-4.47.34,0-2.19,2.35-4.48,5.56-5.49,2.55-.54,1.11,1.41,1.55,1.1,4.8.39,4.09-3.82,8.07-2.24,1.59,1.39.08,2.77.43,3.78-2.08.52-3.2-.89-4.61-.83l1.74.66a3.27,3.27,0,0,1-2.81.41c1.32,1.25,8.11.24,11.81,1.4.66-.47,1.79-1,1.25-1.52l-1.17.2c-1.07-1.12,2.21-1.55.73-2.08,1.57-.79,3.33-2,5.54-1.4l.42,1.59c0-.46-1.45-.94-2.07-.46.92-.7,3.39,2.15,4.4.07l-1.55-1.1c1.58-.8,3.53-2.48,5.49-2-.89-1.57-.45.18-1.85-1.66,1.21,2.29-5-.1-3.07,2.31-1.43-2.14-2.48-.91-4.34-2.73.05.53.66,1-1,.75a2.28,2.28,0,0,1-.36.46l-.11,0,.09.06c-.07.08-.08.1,0,0a2,2,0,0,1,.84.8c-.81,1.21-3.43,1.16-4.32,1.79-1-.25.41-.6-.12-1.16l-1.32.93c-.13-1.16-2.6-1.93-.3-2.62l-2.07,0a4.87,4.87,0,0,0-3.93-.42c-1-.25-2.47,1.29-1.62.38l-3.24.72,0-.29c-3.21-.15-6.6,1.93-10.26-.17a8,8,0,0,1-4,.32l-.35-1c-1.39.35-4.16-1-4.76,0-1.49-2.71-6.72-.59-9.15-1.07l-.1,1.31a18.51,18.51,0,0,0-5.36.83l.12,1.16c-1.79,1-4.61-.82-7.45-.7.2-.45.92-.33,1.43-.06-3.39-2.63-7.16,1.9-10.23,0a1.72,1.72,0,0,1-1.86,0,.33.33,0,0,0,.19-.06l-.32,0-1.06-.62a3.51,3.51,0,0,0,.89.63,9.14,9.14,0,0,0-2.36.46l-.38-1.25-.2,0c-.86-.46-.69.6-.23,1.53a4.46,4.46,0,0,0-1.17.76c-.69-2-2.3.68-3.26-1.47-.59,1-4.41.79-4.88,3,0-.29-.29-.42.18-.44a3.19,3.19,0,0,0-2.83.12l-.42-1.59-2.14,2.13c-1.3-1-1.83-1.53-.55-2.74-3.11,1.87-2.52.7-5.17,2.56l.13-1c-1,0-2.46,1.41-3,.56-2.11-1.95-10.48-.27-15.92-2.08,1.06,3-2.52-1.35-2.74,1-.32-.72-1.07-1.12-.19-1.74-2.78.7-4.17-1.13-6.09.84-.32-.72.59-1.05.31-1.47-.22.15-.88.62-1.17.19s.41-.6.85-.91c-2.84.12-3.12,2.32-3.33,4.39-1.44-1-2.15-.84-3.19.52-.5-.68-1.34-1.39.43-1.63-1-.1-6.06-1-6.16.67-.31-.43-1.38-.13-1.65.06a29.55,29.55,0,0,0-4.6-.09l.61.27c-.86,2-1.82.45-3.58.69l.05-.2c-4-1.45-1.74.69-5.72-1l.21,1.24c-.37,2.68-3.52-1.57-5.84-.55l.84.71c-1.26.92-3.53-3.64-4.8-4-.27-.23.44-.38.82-.55-3.31-1.57-.42,1.63-2.9,2-.45-.88.59-2.23-1.08-2.4-.82-.71-4.82,2.86-7.09,1.17.5.68,1,1.35-.16,1.86-1.76.24-4.75-2.56-6.34-.42a.73.73,0,0,1-.32-.53c-1.35.55-4.38.91-5.19,2.07-1.24-4.3-8.36,2.09-8.33-1.88l-4.14.22.1-.41a4.65,4.65,0,0,0-4.51,1.64c-.61-.27-.16-.64-.11-.85-3.87-.79-4.25-.62-7.5,1.35l-.33-1.29c-.88.75-5.59-2-9.38-.51a.84.84,0,0,1,.41-.58c-4.26,1.51-10.21-3.56-11.78,1.12l-2.81,1.15c3.64.36-.54,2,1,2.81-1.44.27-3.71-1.42-2-1.65l.28.23c.64-2.44-4.53-.87-4.43-2.53-7.17.12-14.16-1.22-20.87-1.33l.77,1.9-2.34-.11c-.61-.45-.82-1.48.85-1.41-.88-1.07-2.8.9-2.85,1.31-3.27-.76,1.28-2.21.27-2.25l-1.36.14.31.22c-1.11.77-1.2,1.59-3.21,1.5-1.27-.38-.65-1.16-1.15-1.24,0-.13-.17-.2-.77,0l-2.95-.16,1.18,1.49c-1.31.74-2.78-.07-1.42,1.62-2-2.61-11-.94-12.23-1.75-1.83,1.09-3.64,1.07-5.88.94.56.31.89,2-1,1.79.71-3.48-3.54-1.51-5.1-4,1.4,1.66-5.49.41-3.3,2.76-1.61-.28-.1-1.3-1.32-2.12-3.84,1.35-8.46-.87-13.2-.41-.07.45.72,1.15-.3,1.83l-2.5-2.28c-.94.22-.86,2.63-2.57,1.05.24.38.6,1,0,1.11-9.29-2.23-19,1.81-28.42-2.36,1.28.88.43,1-.55,1,.64.21,0,1.12.11,1.74l-4-1.72c-.72,1.72-4.23.12-4.64,1.76l1.25-.3c-1.67,1.94,2.32,4.3,2.08,6.78,1.86-2.19,4.91,3.26,8,.11.67.51-.58.8-.22,1.38.78-1.06,1.71-1.29,3.45-.81l-.2.26c4.87-.26,7,.79,12.43,1.49l-.4-1.22a4,4,0,0,1,2,.85c1.35-1.86-3.3-.11-2.07-2.16,1.56,2.5,8.29,0,9.34,2.88,1.81,0-.53-1.42,1.28-1.4l.48.76.46-1a2.08,2.08,0,0,1,1.82,1.78c-.28-.08-.81.18-1.12.24,1.54.9,4.33-.31,4.86,0l-1.74-.47c4.94-.72,11,.29,15.74-1.27l-.37-.58c3.65-1.07,2.92.63,6.92.14l-.15.14a4.66,4.66,0,0,1,3-.81c-1,.68,1.9,1.32.57,2.07,3.95-1.15,2-.9,4.56-3.05l.6,1a3.65,3.65,0,0,1,3-1.58c-1.63.82,1.28,1.46-.56,2.56,4.19,2.1,6.23-2.13,8.15.95,1.92-2.66-3.63-1.48-2.55-2-.9-.87,1.59-2,2.9-1.72,1.34.06,2.28,3.4,5.65,3.35-.34,0-.36.19-.69.18,1.25.68,2.46-.92,4,.18.87-1.61,2,.09,2.26-2l-3.09.48c1.75-.54,3.39-2.94,6.28-1.77a5,5,0,0,1-1.68,1.26c.85.6,1.63-.4,2.5.22-.25,2.05-3.75.45-5.63,2,.91.86,3.55-1.49,2.61.73,1.35-2.82,3.32.36,5.6-1.8L777,470.8a3.84,3.84,0,0,1,1.77-.74l-1.2,1.6c1.84-1.37,3.55,1.18,5.33.44-3.71,0-.84-1.48-2.4-2.37,4.57-1.65,2.63,3.21,7.74,2.62-.69.18-2.6-.74-1.51-1.31a6.75,6.75,0,0,1,2.86,1.37c3.39-.25-.52-1.26.92-2,1.16,1.5,1.67-.61,3.15-1.09v1.25c3.87.81,1-2.6,4.51-1.63l-1.47,1.73,1.81-.45-.37,1.43c2-1.06,2.59-.79,4.52-.39-.45-.88.25-2.27,2-2.31,1.17.75-.65,1.19,1.78,1-.55.78-1.15,1.77-2.21.61-.11.41-.54.79-.65,1.19,1.26.86,3.16.2,4,.19a2.05,2.05,0,0,1-.95-.3l3.52-1.73c.55.47.11.85-.32,1.22.71-.14,1.2-.71,2.25-.82-.27,1-.21,2.07-1.69,2.54l3.35-1.12c.23.44,1.72,1.21,1.29,1.59,1.86.59,4.56-2,7-1.19a1.48,1.48,0,0,1,.91-.53c2.31.23,4.37,1.48,7.11.08l1.56,1.83c2.15-.42-2.11-2.3,1.47-3,2.53-.58.94,1.56,1.83,2.06,1.26-.91,3.45-2.78,5.78-1.3C839.91,471.61,839.31,471.34,838.59,471.48Zm26.5-.81c-.51.26-1.53,1.07-1.91.34C863.77,469.57,864.22,470.26,865.09,470.67Zm40.3-3c-.38.41-1,.21-1.64-.26A2.39,2.39,0,0,1,905.39,467.66Zm112.25-8.7,0,.06C1016.44,458.53,1016.85,458.72,1017.64,459Zm2.38.54a.35.35,0,0,0,.12-.52c-.16.31-.7.34-1.3.25C1019,459.55,1019.31,459.78,1020,459.5Zm-255.5.49.46.33C763.94,460.68,764.23,460.35,764.52,460Z" transform="translate(-674 -455)"/><path class="cls-1" d="M900.82,469.37a1.65,1.65,0,0,1-.22-.68C900.4,468.9,900.4,469.15,900.82,469.37Z" transform="translate(-674 -455)"/><path class="cls-1" d="M822.1,472.14l-.08,0a.7.7,0,0,0-.08.23Z" transform="translate(-674 -455)"/><path class="cls-1" d="M983.17,470.1a2,2,0,0,1-.95-.64C982.2,469.76,982.42,470,983.17,470.1Z" transform="translate(-674 -455)"/><path class="cls-1" d="M1032.63,457.37l-1.52.33a2,2,0,0,1,1.37.41C1032.44,457.82,1032.15,457.39,1032.63,457.37Z" transform="translate(-674 -455)"/><path class="cls-1" d="M1045.86,465.11c.22-.15.47,0,.69-.17l-.06-.58C1045.54,464.4,1044.88,464.87,1045.86,465.11Z" transform="translate(-674 -455)"/><path class="cls-1" d="M1034,461.53c.12,1.05,1.08.69,2.15.5H1036C1036.31,460.55,1035.17,461,1034,461.53Z" transform="translate(-674 -455)"/><path class="cls-1" d="M1036.43,462a3.29,3.29,0,0,1,1,0C1037.54,461.38,1037,461.84,1036.43,462Z" transform="translate(-674 -455)"/><path class="cls-1" d="M1023,458.8c.51.27.32-1.34.6-.92C1024.21,456.55,1020.27,459.51,1023,458.8Z" transform="translate(-674 -455)"/><polygon class="cls-1" points="360.9 9.99 360.52 8.7 359.93 9.74 360.9 9.99"/><path class="cls-1" d="M1026.48,464l1.7.36c0-.22.19-.35.46-.44C1027.59,463.92,1026.44,463.66,1026.48,464Z" transform="translate(-674 -455)"/><path class="cls-1" d="M1028.64,464a2.43,2.43,0,0,0,1.37-.22A5.58,5.58,0,0,0,1028.64,464Z" transform="translate(-674 -455)"/><polygon class="cls-1" points="358.57 10.39 358.07 10.11 356.86 10.02 358.57 10.39"/><path class="cls-1" d="M1008.14,463.79l-1.86.37c-.19.45.32.72,1,.54C1007.73,464.39,1008.42,464.22,1008.14,463.79Z" transform="translate(-674 -455)"/><path class="cls-1" d="M1013.77,467.35c-.5-.28-.54-.56-.82-1l-.06,1.61Z" transform="translate(-674 -455)"/><path class="cls-1" d="M1008.34,467.72c-.19.45-2.7,1.28-.34,1.18C1008.19,468.46,1010.05,468.09,1008.34,467.72Z" transform="translate(-674 -455)"/><polygon class="cls-1" points="306.29 10.69 306.76 10.67 306.69 8.03 306.29 10.69"/><path class="cls-1" d="M955.57,472c2.2.63.52-1.63,2.51-.84.52-.62-1.63-.64-1.1-1.18C955.65,470.63,955,470.27,955.57,472Z" transform="translate(-674 -455)"/><path class="cls-1" d="M957,470a4.13,4.13,0,0,0,.68-.4A2.23,2.23,0,0,0,957,470Z" transform="translate(-674 -455)"/><polygon class="cls-1" points="3.91 3.65 2.49 3.1 3.41 3.99 3.91 3.65"/><path class="cls-1" d="M675.19,460.61l-.34-1.68-.85,1.52C674.32,460.38,674.94,460.23,675.19,460.61Z" transform="translate(-674 -455)"/><path class="cls-1" d="M869,474.06l.11-.4c-.22-.44-.55-.47-1.21-.55Z" transform="translate(-674 -455)"/><polygon class="cls-1" points="175.8 17.8 176.13 17.84 175.51 16.31 175.8 17.8"/><path class="cls-1" d="M833.65,474.74c.66.06,1.43-.28,2.09-.21C834.31,474.8,833.47,472.84,833.65,474.74Z" transform="translate(-674 -455)"/></svg>